<?xml version="1.0" encoding="utf-8"?>
<!-- Generated by IcoMoon.io -->
<!DOCTYPE svg PUBLIC "-//W3C//DTD SVG 1.1//EN" "http://www.w3.org/Graphics/SVG/1.1/DTD/svg11.dtd">
<svg version="1.1" xmlns="http://www.w3.org/2000/svg" xmlns:xlink="http://www.w3.org/1999/xlink" width="32" height="32" viewBox="0 0 32 32">
<path d="M14.688 30.688v-8h2.625v8h-2.625zM7.5 22.625l2.875-2.875 1.875 1.875-2.875 2.875zM19.75 21.625l1.875-1.875 2.875 2.875-1.875 1.875zM16 12q1.625 0 2.813 1.188t1.188 2.813-1.188 2.813-2.813 1.188-2.813-1.188-1.188-2.813 1.188-2.813 2.813-1.188zM22.688 14.688h8v2.625h-8v-2.625zM24.5 9.375l-2.875 2.875-1.875-1.875 2.875-2.875zM17.313 1.313v8h-2.625v-8h2.625zM12.25 10.375l-1.875 1.875-2.875-2.875 1.875-1.875zM9.313 14.688v2.625h-8v-2.625h8z"></path>
</svg>
