<?xml version="1.0" encoding="utf-8"?>
<!-- Generated by IcoMoon.io -->
<!DOCTYPE svg PUBLIC "-//W3C//DTD SVG 1.1//EN" "http://www.w3.org/Graphics/SVG/1.1/DTD/svg11.dtd">
<svg version="1.1" xmlns="http://www.w3.org/2000/svg" xmlns:xlink="http://www.w3.org/1999/xlink" width="32" height="32" viewBox="0 0 32 32">
<path d="M15.313 12q0-1.375 1-2.344t2.375-0.969 2.344 0.969 0.969 2.344-0.969 2.344-2.344 0.969-2.375-0.969-1-2.344zM10.188 3.5q-3.5 3.5-3.5 8.5t3.5 8.5l-1.875 1.875q-4.313-4.313-4.313-10.375t4.313-10.375zM22.688 26.688q1.063 0 1.844-0.813t0.781-1.875h2.688q0 2.188-1.563 3.75t-3.75 1.563q-1.25 0-2.188-0.438-2.563-1.313-3.688-4.75-0.438-1.375-2.25-2.75-2.563-1.875-3.813-4.188-1.438-2.563-1.438-5.188 0-3.938 2.719-6.625t6.656-2.688 6.625 2.688 2.688 6.625h-2.688q0-2.813-1.906-4.75t-4.719-1.938-4.75 1.938-1.938 4.75q0 2 1.063 3.938 0.875 1.688 3.125 3.375 2.5 1.875 3.188 4 0.813 2.375 2.25 3.125 0.5 0.25 1.063 0.25z"></path>
</svg>
